<svg xmlns="http://www.w3.org/2000/svg" xmlns:xlink="http://www.w3.org/1999/xlink" width="196" zoomAndPan="magnify" viewBox="0 0 147 147.000002" height="196" preserveAspectRatio="xMidYMid meet" version="1.0"><defs><clipPath id="8b46cf1261"><path d="M 0.496094 2.59375 L 143 2.59375 L 143 143.386719 L 0.496094 143.386719 Z M 0.496094 2.59375 " clip-rule="nonzero"/></clipPath></defs><g clip-path="url(#8b46cf1261)"><path fill="#ff694a" d="M 136.921875 7.546875 C 140.273438 10.765625 142.464844 15.015625 142.980469 19.65625 C 142.980469 21.585938 142.464844 22.875 141.304688 25.324219 C 140.144531 27.769531 125.84375 52.503906 121.59375 59.332031 C 119.144531 63.328125 117.859375 68.09375 117.859375 72.730469 C 117.859375 77.496094 119.144531 82.136719 121.59375 86.128906 C 125.84375 92.957031 140.144531 117.820312 141.304688 120.269531 C 142.464844 122.714844 142.980469 123.875 142.980469 125.808594 C 142.464844 130.445312 140.402344 134.695312 137.050781 137.789062 C 133.832031 141.136719 129.582031 143.328125 125.070312 143.714844 C 123.140625 143.714844 121.851562 143.199219 119.53125 142.039062 C 117.214844 140.878906 91.964844 126.964844 85.136719 122.714844 C 84.621094 122.457031 84.105469 122.070312 83.460938 121.8125 L 49.707031 101.84375 C 50.480469 108.289062 53.316406 114.472656 57.953125 118.980469 C 58.835938 119.867188 59.78125 120.679688 60.789062 121.425781 C 60.015625 121.8125 59.113281 122.199219 58.339844 122.714844 C 51.511719 126.964844 26.648438 141.265625 24.199219 142.425781 C 21.753906 143.585938 20.59375 144.101562 18.53125 144.101562 C 13.894531 143.585938 9.644531 141.523438 6.550781 138.175781 C 3.203125 134.953125 1.011719 130.703125 0.496094 126.066406 C 0.625 124.132812 1.140625 122.199219 2.171875 120.523438 C 3.332031 118.078125 17.628906 93.214844 21.882812 86.386719 C 24.328125 82.394531 25.617188 77.753906 25.617188 72.988281 C 25.617188 68.222656 24.328125 63.585938 21.882812 59.589844 C 17.628906 52.503906 3.199219 27.640625 2.171875 25.191406 C 1.140625 23.519531 0.625 21.585938 0.496094 19.652344 C 1.011719 15.015625 3.074219 10.765625 6.421875 7.546875 C 9.644531 4.195312 13.894531 2.132812 18.53125 1.617188 C 20.464844 1.746094 22.398438 2.261719 24.199219 3.292969 C 26.261719 4.195312 44.425781 14.757812 54.089844 20.425781 L 56.277344 21.714844 C 57.050781 22.230469 57.695312 22.617188 58.210938 22.875 L 59.242188 23.519531 L 93.636719 43.875 C 92.867188 36.144531 88.871094 29.058594 82.6875 24.292969 C 83.460938 23.90625 84.363281 23.519531 85.136719 23.003906 C 91.964844 18.753906 116.828125 4.324219 119.273438 3.292969 C 120.949219 2.261719 122.882812 1.746094 124.941406 1.617188 C 127.222656 1.878906 129.394531 2.519531 131.449219 3.535156 C 133.507812 4.554688 135.332031 5.890625 136.921875 7.546875 M 73.542969 82.007812 L 80.882812 74.664062 C 81.914062 73.632812 81.914062 72.085938 80.882812 71.054688 L 73.542969 63.714844 C 72.511719 62.683594 70.964844 62.683594 69.933594 63.714844 L 62.589844 71.054688 C 61.558594 72.085938 61.558594 73.632812 62.589844 74.664062 L 69.933594 82.007812 C 70.835938 82.90625 72.511719 82.90625 73.542969 82.007812 " fill-opacity="1" fill-rule="nonzero"/></g></svg>